<svg width="1728" height="1784" viewBox="0 0 1728 1784" fill="none" xmlns="http://www.w3.org/2000/svg">
<g opacity="0.08">
<path d="M0.134766 1714.85C91.4385 1712.92 181.844 1686.43 273.148 1690.29C343.078 1693.23 403.907 1730.39 472.849 1737.68C544.066 1745.22 595.315 1714.1 662.012 1699.6C725.326 1685.85 784.12 1698.32 845.518 1714.78C908.382 1731.6 967.685 1740.91 1032.35 1731.11C1098.47 1721.31 1160.62 1698.88 1228.27 1700.35C1310.93 1702.11 1390.17 1733.01 1472.55 1737.35C1558.52 1741.89 1641.81 1716.41 1727.45 1714.68" stroke="#143F4A" stroke-miterlimit="10"/>
<path d="M0.134766 1646.27C96.9766 1633.5 216.091 1558.09 311.974 1575.13C390.675 1589.18 418.456 1686.4 491.379 1710.96C574.301 1738.89 585.047 1648.45 636.806 1606.45C697.007 1557.66 756.25 1606.65 807.859 1646.27C868.179 1692.54 920.147 1724.65 993.1 1691.11C1058.3 1661.06 1118.26 1599.2 1193.07 1604.69C1300.84 1612.59 1396.93 1692.41 1502.87 1710.87C1586.34 1725.4 1647.88 1658.35 1727.39 1646.3" stroke="#143F4A" stroke-miterlimit="10"/>
<path d="M0.134766 1577.68C58.9583 1565.3 112.334 1543.58 167.774 1519.38C216.18 1498.22 293.025 1448.41 347.149 1464.29C437.554 1490.8 428.604 1639.76 508.083 1680.49C594.896 1724.87 587.323 1565.82 613.935 1515.23C660.964 1425.81 737.779 1532.9 774.121 1577.78C828.005 1644.5 877.219 1706.78 957.866 1648.71C1020.16 1603.87 1079.17 1504.26 1161.43 1511.54C1221 1516.83 1283.45 1561.25 1337 1588.81C1398.55 1620.46 1463.48 1663.93 1530.74 1680.55C1622.65 1703.35 1648.09 1600.31 1727.42 1577.68" stroke="#143F4A" stroke-miterlimit="10"/>
<path d="M0.134766 1509.09C60.7545 1496.22 114.399 1472.32 170.768 1445.6C218.665 1422.74 298.084 1367.97 353.076 1384.99C447.014 1413.99 429.801 1576.6 511.735 1620.98C601.841 1669.97 585.586 1488.32 608.397 1438.32C653.63 1339.1 734.367 1463.11 766.667 1508.63C817.947 1580.84 866.263 1651.06 949.574 1587.44C1011.75 1539.95 1072.31 1431.72 1156.13 1438.87C1217.68 1444.13 1282.52 1493.02 1337.15 1522.77C1400.46 1557.23 1467.7 1604.88 1537.72 1622.97C1635.91 1648.38 1645.28 1532.38 1727.6 1509.16" stroke="#143F4A" stroke-miterlimit="10"/>
<path d="M0.134766 1440.52C52.6419 1430.42 98.204 1411.12 146.819 1388.03C193.22 1365.82 252.373 1326.73 304.97 1337.87C394.776 1356.84 416.18 1488.62 498.234 1521.51C588.041 1557.43 589.478 1419.52 626.957 1364.94C683.835 1282.09 752.178 1382.84 790.077 1433.2C845.757 1507.2 887.607 1555.05 976.336 1513.9C1047.67 1480.78 1124.52 1406.39 1205.43 1413.87C1318.32 1424.28 1413.97 1528.17 1523.92 1553.19C1619.17 1574.87 1644.86 1462.66 1727.48 1440.58" stroke="#143F4A" stroke-miterlimit="10"/>
<path d="M0.134766 1371.93C80.961 1360.72 152.328 1294.65 234.172 1300.08C324.428 1305.99 389.478 1391.91 476.65 1408.67C573.582 1427.28 586.335 1335.77 652.612 1287.54C726.404 1233.84 775.348 1294.39 824.563 1354.32C884.434 1427.51 926.643 1451.81 1017.14 1440.61C1102.75 1430.03 1190.77 1401.87 1277.43 1409.35C1357.87 1416.31 1426.06 1473.76 1505.51 1484.47C1598.31 1497.07 1642.91 1392.04 1727.39 1371.89" stroke="#143F4A" stroke-miterlimit="10"/>
<path d="M0.134766 1303.35C64.8257 1297.14 115.627 1255.14 181.335 1254.85C276.71 1254.39 366.936 1300.05 461.563 1306.35C553.615 1312.46 595.824 1252.14 672.699 1213.27C750.951 1173.69 796.842 1217.81 850.307 1278.1C873.956 1304.78 901.407 1340.32 934.307 1354.36C965.53 1367.69 1014.74 1364.52 1046.86 1367.06C1141.76 1374.61 1236.57 1382.77 1331.55 1388.52C1385.65 1391.79 1436.99 1412.49 1490.9 1414.91C1585.95 1419.19 1638.75 1323.11 1727.39 1303.31" stroke="#143F4A" stroke-miterlimit="10"/>
<path d="M0.134766 1234.76C61.5328 1227.93 115.686 1196.41 177.803 1196.25C270.603 1195.96 359.961 1234.85 452.283 1240.63C541.82 1246.25 597.89 1188.71 675.752 1152.16C750.861 1116.92 798.01 1155.43 856.863 1205.92C882.847 1228.13 912.843 1257.42 944.724 1269.6C979.45 1282.83 1020.13 1278.22 1056.17 1284.36C1149.12 1300.27 1238.24 1329.83 1333.02 1331.92C1383.64 1333.03 1433.6 1327.7 1484.19 1328.16C1575.32 1328.91 1640.61 1256.02 1727.42 1234.76" stroke="#143F4A" stroke-miterlimit="10"/>
<path d="M0.134766 1166.18C63.7181 1164.42 128.529 1154.42 192.022 1158.21C269.855 1162.85 340.593 1202.86 417.767 1210.47C510.747 1219.71 585.826 1153.84 668.897 1119.02C738.707 1089.63 803.608 1107.49 874.256 1123.49C941.222 1138.65 1017.74 1136.26 1079.49 1168.86C1149.96 1206.09 1221.42 1293.19 1305.15 1283.98C1371.01 1276.76 1403.94 1202.33 1466.32 1186.82C1546.01 1167.23 1645.94 1170.65 1727.45 1166.18" stroke="#143F4A" stroke-miterlimit="10"/>
<path d="M0.134766 1097.59C69.5256 1102.82 139.755 1115.98 208.637 1126.2C269.286 1135.18 317.273 1177.7 376.815 1187.99C471.861 1204.32 573.223 1125.74 659.976 1093.28C734.606 1065.26 818.096 1059.45 895.091 1038.51C967.206 1018.92 1049.68 974.859 1106.47 1045.44C1147.06 1095.86 1195.79 1256.22 1271.68 1239.76C1356.13 1221.43 1370.08 1069.57 1444.71 1032.27C1515.45 996.937 1655.58 1084.69 1727.42 1097.59" stroke="#143F4A" stroke-miterlimit="10"/>
<path d="M0.134766 1029C74.1357 1036.84 145.772 1064.76 218.964 1078.51C271.801 1088.47 301.856 1133.81 352.388 1145.79C446.326 1168.1 569.301 1079.53 656.264 1048.76C695.181 1034.95 734.756 1032.82 774.181 1022.14C820.491 1009.57 864.377 982.954 906.975 960.55C974.031 925.441 1075.15 846.244 1123.92 942.881C1151.64 997.813 1172.53 1205.85 1252.64 1186.39C1296.65 1175.67 1322.63 1100.49 1341.85 1061.66C1363.34 1018.23 1388.4 937.819 1432.83 912.214C1480.24 884.912 1533.32 928.544 1572.98 952.614C1625.04 984.064 1668.78 1014.44 1727.45 1028.9" stroke="#143F4A" stroke-miterlimit="10"/>
<path d="M0.134766 960.425C73.4771 968.099 135.204 1009.15 208.397 1020.09C262.7 1028.22 313.172 1054.29 367.385 1061.44C459.497 1073.62 556.429 1012.81 643.153 985.735C730.415 958.53 808.038 945.14 892.936 904.937C961.788 872.278 1061.05 799.122 1114.13 888.608C1145.41 941.319 1173.49 1125.35 1251 1108.14C1295.12 1098.34 1325.84 1024.7 1348.02 986.813C1373.22 943.671 1403.31 866.204 1449.23 841.285C1497.13 815.158 1544.49 856.275 1582.95 882.664C1632.2 916.433 1669.56 946.838 1727.42 960.425" stroke="#143F4A" stroke-miterlimit="10"/>
<path d="M0.134766 891.835C70.6931 904.899 109.37 970.217 182.084 974.528C255.695 978.773 331.762 957.676 405.284 953.365C555.411 944.547 711.855 921.849 854.798 871.424C925.446 846.505 1024.71 789.548 1088.3 855.094C1133.95 902.319 1172.47 1027.83 1249.77 1012.51C1355.5 991.543 1394.03 811.168 1490.69 768.973C1539.43 747.679 1574.03 781.252 1609.15 812.54C1649.59 848.856 1675.06 877.759 1727.42 891.835" stroke="#143F4A" stroke-miterlimit="10"/>
<path d="M0.134766 823.252C69.5855 842.618 80.961 927.074 155.8 928.936C252.313 931.352 348.346 859.928 443.182 845.231C496.348 837.001 536.731 852.971 587.203 864.336C663.838 881.58 742.15 855.943 816.689 837.883C893.385 819.3 986.934 782.003 1062.16 821.553C1122.54 853.396 1173.61 931.679 1248.24 916.917C1363.31 894.056 1422.74 734.485 1531.82 696.633C1621.63 665.542 1652.22 799.639 1727.48 823.023" stroke="#143F4A" stroke-miterlimit="10"/>
<path d="M0.134766 754.669C74.7943 756.792 65.3047 866.983 145.562 869.236C251.025 872.175 355.112 779.555 458.21 761.266C522.242 749.9 528.319 773.252 574.959 800.228C632.106 833.377 745.203 793.076 802.47 782.592C884.434 767.569 969.541 741.409 1050.94 770.476C1112.24 792.422 1180.05 848.204 1247.01 836.251C1362.57 815.676 1438.33 667.045 1548.29 629.095C1639.83 597.481 1652.58 730.175 1727.42 754.669" stroke="#143F4A" stroke-miterlimit="10"/>
<path d="M0.134766 686.088C67.939 702.418 98.4435 773.189 169.66 775.116C259.467 777.533 350.921 728.251 439.949 717.506C492.217 711.17 542.988 720.021 595.016 725.083C662.611 731.615 730.984 725.409 798.788 723.646C941.91 719.988 1087.7 720.119 1229.86 701.372C1333.26 687.721 1425.7 611.757 1527.21 588.536C1614.65 568.516 1649.59 665.382 1727.42 686.088" stroke="#143F4A" stroke-miterlimit="10"/>
<path d="M0.134766 617.512C72.7287 623.652 137.27 657.356 210.044 663.921C276.92 669.963 343.467 685.312 410.403 689.493C486.439 694.261 553.286 664.672 626.419 648.44C690.241 634.299 734.187 644.162 792.322 672.281C856.265 703.242 901.288 715.685 964.512 672.739C1037.88 622.868 1107.3 520.287 1199.33 519.666C1295.75 519.013 1394.36 553.37 1490.24 562.907C1573.04 571.137 1645.61 609.805 1727.39 617.578" stroke="#143F4A" stroke-miterlimit="10"/>
<path d="M0.134766 548.919C76.4408 548.332 169.69 542.943 244.14 559.338C304.311 572.564 328.948 636.413 385.227 655.355C465.485 682.396 578.551 599.475 653.45 572.369C723.709 546.927 757.806 543.857 786.964 617.928C819.534 700.718 861.324 687.067 918.83 624.459C968.044 570.768 1007.83 506.659 1053.72 449.734C1082.16 414.43 1123.02 351.366 1174.09 356.134C1220.7 360.478 1272.22 409.793 1311.02 436.932C1357.24 469.264 1406.3 512.864 1459.56 531.643C1534.55 557.966 1648.9 549.965 1727.3 549.246" stroke="#143F4A" stroke-miterlimit="10"/>
<path d="M0.134766 480.344C79.554 479.364 179.09 469.338 256.264 487.529C315.716 501.572 331.103 567.543 385.736 587.661C462.581 616.042 585.287 532.468 658.33 506.896C724.697 483.708 763.464 474.563 787.682 549.352C815.073 633.873 861.862 611.404 914.729 551.834C965.2 495.008 1005.64 427.404 1052.43 367.246C1080.36 331.322 1122.42 264.371 1174.24 268.355C1223.43 272.176 1271.62 330.407 1307.45 363.556C1349.36 402.289 1396.03 459.083 1450.46 478.417C1530.15 506.765 1644.68 479.397 1727.42 480.409" stroke="#143F4A" stroke-miterlimit="10"/>
<path d="M0.134766 411.752C146.969 420.407 291.828 459.434 439.291 468.938C552.028 476.188 691.469 485.267 801.512 456.038C861.204 440.231 907.395 447.155 960.77 405.678C1026.93 354.273 1123.62 202.735 1211.96 217.824C1311.83 234.709 1346.37 405.906 1436.81 445.032C1515.84 479.226 1645.76 416.684 1727.45 411.72" stroke="#143F4A" stroke-miterlimit="10"/>
<path d="M0.134766 343.169C106.317 360.184 230.37 442.844 336.522 429.421C405.793 420.636 445.517 350.746 511.376 334.384C592.202 314.266 595.765 394.084 644.051 437.945C711.645 499.409 776.606 405.286 820.282 353.979C847.733 321.647 880.393 276.773 917.932 256.949C950.113 239.967 988.67 244.833 1022.89 235.525C1090.51 217.138 1193.04 145.844 1262.22 174.029C1352.57 210.868 1337.99 376.873 1419.56 423.836C1462.91 448.788 1523.32 412.83 1563.88 396.86C1618.76 375.175 1669.41 353.26 1727.33 343.169" stroke="#143F4A" stroke-miterlimit="10"/>
<path d="M0.134766 274.592C62.1315 287.133 118.71 309.766 177.234 334.456C231.418 357.317 307.215 404.574 367.445 392.197C456.055 373.973 478.566 249.412 560.111 219.823C656.953 184.649 617.737 342.359 637.106 397.716C679.015 517.313 809.475 296.473 832.885 263.063C866.143 215.414 909.939 137.751 958.824 105.06C994.986 80.9248 1024.98 91.441 1064.77 95.752C1105.24 100.161 1145.59 104.733 1186.19 109.175C1213.85 112.212 1271.08 106.105 1296.59 121.879C1379.18 172.99 1330.89 334.782 1406.84 387.428C1449.92 417.311 1517.33 367.441 1555.26 348.238C1613.07 318.682 1664.56 288.799 1727.42 274.592" stroke="#143F4A" stroke-miterlimit="10"/>
<path d="M0.134766 206C60.3054 217.789 115.806 238.658 173.013 261.356C226.897 282.813 299.551 325.89 358.614 314.623C445.428 298.065 474.136 180.722 554.783 153.288C653.57 119.617 612.139 265.798 640.339 319.359C694.402 422.038 803.189 238.43 836.507 194.046C870.454 148.847 913.861 78.0421 961.758 47.0815C997.052 24.2203 1028.07 32.0258 1066.8 37.2838C1106.2 42.5746 1145.29 50.3474 1184.6 56.226C1216.84 61.1901 1263.51 56.226 1294.16 69.2895C1374.99 104.235 1340.95 261.552 1410.46 308.744C1453.75 338.137 1518.59 292.415 1557.69 273.767C1614.56 246.693 1666.05 219.292 1727.3 205.967" stroke="#143F4A" stroke-miterlimit="10"/>
<path d="M0.134766 137.423C102.784 150.127 216.54 217.208 319.129 205.484C396.632 196.666 446.266 120.995 520.656 104.241C608.038 84.4174 602.141 162.864 653.241 209.044C720.387 269.691 798.339 176.058 846.805 130.14C916.794 63.8096 966.547 23.8678 1060.9 32.3265C1097.61 35.5924 1134.16 40.5239 1170.8 44.3449C1202.08 47.6108 1246.3 41.079 1276.38 51.9871C1346.91 77.5264 1360.2 175.307 1427.23 202.381C1507.84 235.04 1646 148.298 1727.39 137.553" stroke="#143F4A" stroke-miterlimit="10"/>
<path d="M0.134766 68.835C92.2767 70.6639 183.191 94.7662 275.363 92.1534C346.251 90.1286 412.379 62.1726 482.727 56.7186C553.076 51.2645 601.542 79.7757 667.131 94.4396C735.773 109.822 794.357 93.0352 858.3 66.4836C980.138 15.8297 1127.87 28.24 1256.74 39.7359C1323.14 45.6799 1379.87 86.1116 1445.64 92.1861C1539.22 100.808 1634.05 70.7292 1727.51 68.835" stroke="#143F4A" stroke-miterlimit="10"/>
<path d="M1661.04 0.252441C1660.11 93.8528 1650.74 187.029 1650.98 280.629C1651.16 350.192 1660.41 419.005 1661.13 488.503C1662.42 618.126 1685.86 737.527 1667.66 867.738C1646.88 1016.3 1664.06 1166.01 1666.4 1315.56C1667.63 1393.45 1677.57 1470.72 1677.69 1548.64C1677.69 1627.58 1662.3 1704.56 1660.95 1783.43" stroke="#143F4A" stroke-miterlimit="10"/>
<path d="M1594.54 0.252441C1588.55 108.386 1561.04 219.067 1564.12 327.494C1565.74 383.798 1587.44 434.681 1594.06 490.103C1601.01 549.444 1623.46 583.965 1640.73 638.472C1660.55 700.916 1635.97 760.421 1614.99 818.096C1552.96 988.118 1600.74 1179.76 1612.29 1357.95C1617.44 1437.31 1646.33 1514.71 1645.4 1594.59C1644.47 1662.59 1602.59 1716.28 1594.57 1783.43" stroke="#143F4A" stroke-miterlimit="10"/>
<path d="M1528.08 0.252441C1518.11 117.465 1469.86 251.726 1479.32 369.788C1483.24 418.613 1515.42 445.916 1526.92 491.377C1535.63 525.734 1528.41 537.099 1552.81 562.802C1567.3 578.053 1589 581.776 1601.54 600.163C1638.87 654.867 1586.82 727.206 1560.71 773.255C1505.75 870.089 1505.42 920.22 1518.14 1034.53C1531.56 1154.87 1543.5 1275.58 1556.61 1395.83C1565.23 1474.77 1614.09 1555.6 1609.51 1635.74C1605.56 1705.18 1530.27 1715.46 1528.17 1783.39" stroke="#143F4A" stroke-miterlimit="10"/>
<path d="M1461.67 0.252441C1454.61 78.1112 1440.45 153.749 1428.03 230.857C1420.63 276.579 1405.57 328.833 1410.06 376.123C1414.56 423.414 1446.62 443.858 1458.65 487.164C1468.74 523.088 1459.79 530.731 1486.76 556.727C1502.78 572.109 1527.98 574.885 1541.75 593.991C1580.97 648.466 1524.27 721.36 1497.06 765.972C1437.34 863.949 1435.72 913.46 1450.87 1031.82C1466.82 1156.64 1480.02 1281.66 1494.78 1406.48C1503.76 1483.39 1552.56 1565.2 1547.83 1643.26C1543.58 1713.54 1464.64 1715.1 1461.82 1783.69" stroke="#143F4A" stroke-miterlimit="10"/>
<path d="M1395.14 0.252441C1387.48 143.004 1363.35 286.606 1372.48 430.076C1377.57 510.058 1424.39 563.324 1450.7 634.978C1476.81 706.044 1447.71 766.691 1421.84 832.335C1383.8 928.614 1376.13 983.971 1394.18 1088.58C1411.97 1191.58 1443.22 1294.79 1443.7 1400.37C1444 1463.83 1435.11 1528.2 1432.53 1591.59C1429.84 1657.59 1402.87 1718.04 1395.29 1783.39" stroke="#143F4A" stroke-miterlimit="10"/>
<path d="M1328.86 0.252441C1332.36 60.998 1354.76 133.468 1347.45 194.377C1340 256.429 1289.02 285.822 1278.24 344.608C1258.36 453.362 1326.14 585.957 1347.9 691.184C1365.14 774.758 1355.8 848.959 1342.54 931.978C1328.86 1017.51 1317.58 1086.98 1342.9 1170.75C1360.59 1229.37 1419 1327.15 1398.37 1390.25C1378.8 1450.11 1304.58 1447.82 1293.6 1515.1C1280.67 1594.76 1321.8 1703.45 1328.65 1783.39" stroke="#143F4A" stroke-miterlimit="10"/>
<path d="M1262.45 0.252441C1259.99 52.5066 1315.88 59.4956 1312.23 113.938C1306.87 193.168 1209.85 210.249 1190.45 281.772C1176.62 332.687 1201.17 424.393 1208.92 470.802C1223.62 558.981 1241.46 646.931 1254.48 735.567C1267.69 825.542 1267.03 914.766 1266.46 1005.56C1266.1 1077.86 1252.75 1167.97 1287.41 1233.06C1307.65 1271.14 1373.57 1333.39 1348.54 1383.52C1315.82 1449.07 1196.23 1377.77 1173.48 1458.44C1163.33 1494.36 1204.07 1584.99 1214.55 1614.68C1234.25 1670.62 1251.97 1724.28 1262.27 1783.49" stroke="#143F4A" stroke-miterlimit="10"/>
<path d="M1196 0.252441C1189.23 52.5066 1248.35 44.7012 1246.89 100.874C1244.67 185.265 1133.91 221.386 1115.17 299.571C1102.99 350.715 1126.78 436.738 1135.41 483.245C1151.15 568.517 1170.79 653.071 1184.47 738.931C1198.33 825.673 1196.44 914.048 1201.53 1001.8C1205.67 1074.24 1196.95 1157.98 1225.72 1225.03C1242.49 1264.15 1298.88 1334.17 1277.45 1380.09C1245.84 1447.82 1122.59 1382.21 1099.84 1463.66C1089.01 1502.43 1131.39 1586.46 1144.12 1617.39C1166.78 1672.45 1186.27 1723.3 1195.97 1783.33" stroke="#143F4A" stroke-miterlimit="10"/>
<path d="M1129.51 0.252441C1121.61 42.709 1166.93 41.5006 1165.88 88.5947C1163.31 207.277 1043.15 296.926 1023.99 411.918C1006.27 518.516 1085.6 635.99 1114.07 734.685C1133.22 801.244 1132.89 872.114 1148.19 940.175C1164.15 1011.18 1167.08 1076.95 1170.04 1149.81C1172.47 1209.81 1195.94 1315.03 1175.25 1370.55C1148.73 1441.68 1040.81 1442.08 1030.37 1523.56C1025.04 1565.27 1058.03 1617.23 1076.11 1649.62C1100.83 1693.91 1119.69 1731.7 1129.51 1783.53" stroke="#143F4A" stroke-miterlimit="10"/>
<path d="M1063.07 0.252441C1055.37 30.4292 1082.67 38.1694 1081.98 74.1921C1078.81 239.544 946.316 382.688 927.846 545.525C917.698 635.076 1001.61 668.127 1042.35 731.844C1068.84 773.223 1070.88 822.766 1097.43 866.072C1139.55 934.656 1130.36 977.112 1115.66 1060.49C1098.09 1159.71 1084.53 1261.24 1066.21 1359.81C1050.37 1444.95 958.44 1505.53 960.266 1595.34C961.823 1672.78 1045.31 1710.24 1063.07 1783.56" stroke="#143F4A" stroke-miterlimit="10"/>
<path d="M996.653 0.252441C994.024 11.3646 994.932 23.1213 999.228 33.5971C1000.34 30.8925 1001.92 28.4432 1003.87 26.3795C1011.23 60.7693 1000.63 99.2088 992.881 132.456C967.795 240.23 925.646 345.587 892.866 450.684C869.966 524.068 796.743 656.696 884.455 699.348C910.588 712.085 950.073 705.619 973.812 725.475C994.767 742.948 989.618 759.93 1000.1 784.261C1016.41 822.015 1049.1 815.255 1070.47 844.778C1114.03 905.034 1044.91 1054.22 1027.34 1115.19C1000.55 1208.17 990.247 1303.73 965.64 1395.8C945.703 1470.36 874.456 1573.85 894.962 1653.8C910.199 1713.11 998.24 1716.61 996.743 1783.92" stroke="#143F4A" stroke-miterlimit="10"/>
<path d="M930.265 0.0253906C941.042 214.006 819.743 398.006 799.447 605.129C791.005 691.251 851.535 680.049 893.893 729.233C913.052 751.539 905.718 780.736 919.908 804.054C930.116 820.776 945.143 825.446 959.393 836.354C1024.53 886.224 1003.64 933.906 982.802 1017.22C956.489 1122.48 926.344 1221.7 910.628 1329.47C897.216 1421.47 822.078 1512.56 827.107 1607.07C831.148 1683.1 911.885 1711.58 930.205 1783.62" stroke="#143F4A" stroke-miterlimit="10"/>
<path d="M863.787 0.252441C852.531 187.714 798.138 372.041 786.823 559.046C783.17 619.236 794.995 677.532 800.024 737.069C805.562 802.812 804.754 831.552 854.806 871.428C915.636 919.894 911.056 960.913 894.681 1039.52C878.545 1116.99 863.248 1191.06 851.723 1269.31C838.521 1358.89 765.928 1434.04 764.91 1526.21C763.892 1618.37 846.424 1694.24 863.697 1783.43" stroke="#143F4A" stroke-miterlimit="10"/>
<path d="M797.303 0.484863C785.329 120.278 732.073 253.493 739.407 374.56C742.401 423.123 770.391 464.992 774.192 512.935C780.599 593.864 729.109 670.808 706.149 744.813C682.679 820.974 697.647 856.768 750.214 906.54C801.494 955.202 814.426 987.763 806.523 1061.87C801.404 1109.84 800.536 1162.13 792.812 1209.09C778.683 1293.65 706.867 1357.95 703.005 1445.38C698.006 1558.38 780.509 1672.39 797.363 1783.43" stroke="#143F4A" stroke-miterlimit="10"/>
<path d="M730.873 0.252441C721.354 88.7253 703.362 174.847 686.509 261.948C677.528 309.042 653.819 373.903 662.919 422.728C673.097 477.203 711.804 449.018 728.778 492.846C756.887 565.349 652.562 686.481 626.997 749.578C595.834 826.751 618.824 865.876 669.475 919.665C719.438 972.736 729.347 999.581 730.155 1073.62C730.634 1110.85 735.364 1150.63 728.898 1187.24C714.379 1269.44 642.892 1330.94 638.701 1416.15C636.007 1471.18 665.464 1542.37 681.27 1591.85C701.596 1655.34 720.546 1716.71 730.784 1783.3" stroke="#143F4A" stroke-miterlimit="10"/>
<path d="M664.392 0.252441C655.831 122.462 632.75 248.035 633.499 370.767C633.768 420.082 642.479 469.658 642.868 519.006C643.707 599.641 603.443 667.212 581.83 742.132C561.892 811.368 579.704 862.773 603.802 926.785C626.045 985.865 626.673 1041.55 643.677 1099.52C655.352 1139.23 667.625 1166.21 662.686 1211.02C653.166 1298.57 605.09 1379.86 602.815 1468.56C600.031 1572.71 651.699 1680.36 664.512 1783.17" stroke="#143F4A" stroke-miterlimit="10"/>
<path d="M598.105 0.252441C604.99 91.338 636.303 188.759 631.573 280.466C626.394 380.369 558.051 462.963 545.299 560.973C538.024 616.689 546.736 676.683 548.592 732.758C550.927 802.452 544.88 870.35 538.503 939.652C533.295 996.316 507.969 1095.4 543.562 1145.4C573.498 1187.34 597.447 1192.4 598.195 1255.01C599.243 1357.03 589.514 1459.03 589.424 1561.09C589.424 1635.48 597.536 1709.29 598.075 1783.69" stroke="#143F4A" stroke-miterlimit="10"/>
<path d="M531.715 0.252441C548.209 70.1424 619.786 130.888 619.007 204.958C618.289 270.603 567.009 343.954 538.989 400.618C511.299 456.66 463.521 532.102 452.176 596.767C439.992 666.526 483.578 674.397 510.64 724.136C545.246 787.69 493.128 889.782 472.981 950.299C453.403 1009.08 389.161 1131.23 448.643 1183.35C493.547 1222.77 526.476 1216.44 532.972 1290.96C542.671 1403.6 571.35 1524.77 567.248 1637.93C565.303 1691.1 533.152 1730.98 531.655 1783.79" stroke="#143F4A" stroke-miterlimit="10"/>
<path d="M465.194 0.252441C481.629 73.2777 565.688 118.804 564.401 196.206C563.293 265.41 508.601 339.317 477.588 397.613C447.861 453.656 393.109 533.996 382.153 600.686C370.298 673.025 418.495 676.291 447.772 725.28C485.371 788.213 427.864 894.028 406.341 953.206C384.817 1012.38 316.145 1134.99 378.141 1188.64C424.033 1228.36 456.782 1221.3 462.56 1296.65C471.331 1411.15 518.3 1529.15 512.313 1644.33C509.319 1699.13 461.931 1730 465.164 1783.69" stroke="#143F4A" stroke-miterlimit="10"/>
<path d="M398.752 0.252441C416.474 84.9043 506.91 163.188 503.198 251.922C498.169 373.119 363.967 451.696 341.366 567.635C329.96 626.225 351.454 690.694 358.07 748.761C366.422 822.178 351.125 888.607 335.977 959.77C323.255 1019.54 289.367 1112.06 324.632 1169.54C332.654 1182.6 345.946 1190.18 354.328 1202.65C371.69 1228.52 369.535 1252.23 373.576 1281.95C387.197 1381.89 462.006 1467.09 463.174 1569.51C464.132 1646.26 408.841 1708.31 398.722 1783.43" stroke="#143F4A" stroke-miterlimit="10"/>
<path d="M332.444 0.252441C346.334 73.3757 377.197 131.737 405.576 198.916C421.562 236.833 447.816 282.85 444.104 326.907C436.889 412.212 334.509 447.026 309.393 524.591C298.257 558.817 298.826 610.614 291.252 646.408C281.912 690.465 270.297 733.999 262.125 778.383C250.151 843.309 257.096 903.728 264.46 968.588C270.983 1026.72 274.421 1085.21 274.758 1143.77C275.087 1180.22 267.992 1226.3 277.751 1260.69C301.341 1344.39 409.708 1378.1 420.305 1468.33C425.663 1514.22 394.8 1580.29 379.832 1619.97C359.386 1674.18 341.754 1724.97 332.623 1783.26" stroke="#143F4A" stroke-miterlimit="10"/>
<path d="M265.908 0.252441C280.876 82.6181 312.069 155.219 342.124 232.13C357.87 272.464 389.512 331.217 382.268 377.495C371.611 445.817 291.982 437 266.058 494.185C250.431 528.64 246.39 594.775 233.727 631.843C214.478 688.146 190.919 742.883 173.856 800.264C152.901 870.873 158.229 914.342 194.182 974.565C224.118 1024.5 242.079 1067.35 220.076 1126.43C205.887 1164.8 174.784 1202.43 190.29 1247.69C217.951 1328.36 351.344 1309.91 369.216 1400.5C378.556 1447.79 335.059 1544.2 321.498 1583.39C298.657 1649.56 277.313 1713.21 265.818 1783.13" stroke="#143F4A" stroke-miterlimit="10"/>
<path d="M199.512 0.252441C214.18 79.8748 242.828 151.104 268.364 227.036C282.164 267.99 311.441 324.065 305.184 369.788C296.204 434.648 225.017 436.118 202.026 491.377C186.729 528.216 183.705 588.569 170.893 627.564C152.932 682.856 130.48 736.775 114.554 792.916C94.7667 862.675 99.7959 907.222 134.252 967.314C163.918 1019.14 178.676 1061.5 159.098 1121.92C145.687 1163.3 114.195 1204.39 130.21 1251.48C156.434 1329.47 278.542 1320.65 294.198 1407.85C302.61 1454.49 263.065 1547.6 250.462 1587.47C229.926 1652.4 210.618 1715.53 199.571 1783.43" stroke="#143F4A" stroke-miterlimit="10"/>
<path d="M133.038 0.252441C145.371 105.479 204.883 220.667 198.896 327.494C195.304 390.755 147.197 430.272 134.325 490.103C115.376 578.282 97.6539 670.053 79.7225 759.408C66.6705 824.726 73.3462 876.98 92.3852 939.032C110.915 999.353 118.908 1050.07 108.012 1113.46C99.5698 1162.45 78.076 1217.97 89.4516 1268.27C105.796 1341.45 185.006 1374.64 192.101 1452.56C201.68 1558.15 143.964 1678.62 133.008 1783.53" stroke="#143F4A" stroke-miterlimit="10"/>
<path d="M66.498 0.252441C68.5037 94.31 88.83 186.408 88.2911 280.629C87.9019 351.172 68.0546 418.286 66.3184 488.503C62.8159 629.818 39.1368 765.548 53.2664 907.32C66.019 1035.18 45.4532 1159.41 51.2008 1286.75C54.5237 1360.63 85.2976 1427.51 86.1657 1502.01C87.2434 1596.32 68.2043 1689.27 66.498 1783.56" stroke="#143F4A" stroke-miterlimit="10"/>
</g>
</svg>
