<svg width="34" height="34" viewBox="0 0 34 34" fill="none" xmlns="http://www.w3.org/2000/svg">
<path d="M18.6975 11.3333H15.3031C10.4241 11.3333 7.13463 16.4049 9.05705 20.9666C9.18549 21.2753 9.4021 21.5392 9.67978 21.7254C9.95746 21.9117 10.2839 22.0119 10.6182 22.0135H11.8139C12.2162 22.0135 12.5675 22.2912 12.6653 22.6893L14.2038 28.9467C14.3539 29.5765 14.7111 30.1376 15.2182 30.5401C15.7253 30.9427 16.3529 31.1633 17.0003 31.1666C17.6477 31.1633 18.2753 30.9427 18.7824 30.5401C19.2895 30.1376 19.6467 29.5765 19.7968 28.9467L21.3353 22.6893C21.3808 22.4974 21.4895 22.3264 21.6439 22.2038C21.7984 22.0813 21.9895 22.0142 22.1867 22.0135H23.3824C23.7169 22.0117 24.0434 21.9113 24.3211 21.7249C24.5988 21.5384 24.8153 21.2741 24.9436 20.9652C26.866 16.4063 23.5765 11.3333 18.696 11.3333H18.6975Z" stroke="#1CA8CB" stroke-width="2"/>
<path d="M17 11.3333C19.3472 11.3333 21.25 9.43046 21.25 7.08325C21.25 4.73604 19.3472 2.83325 17 2.83325C14.6528 2.83325 12.75 4.73604 12.75 7.08325C12.75 9.43046 14.6528 11.3333 17 11.3333Z" stroke="#1CA8CB" stroke-width="2"/>
</svg>
