<svg width="34" height="34" viewBox="0 0 34 34" fill="none" xmlns="http://www.w3.org/2000/svg">
<path d="M23.3763 2.83325V7.08325M10.6263 2.83325V7.08325M17.0013 2.83325V7.08325M18.418 4.95825H15.5846C10.9096 4.95825 8.57214 4.95825 7.12005 6.41034C5.66797 7.86242 5.66797 10.1999 5.66797 14.8749V21.2499C5.66797 25.9249 5.66797 28.2624 7.12005 29.7145C8.57214 31.1666 10.9096 31.1666 15.5846 31.1666H18.418C23.093 31.1666 25.4305 31.1666 26.8826 29.7145C28.3346 28.2624 28.3346 25.9249 28.3346 21.2499V14.8749C28.3346 10.1999 28.3346 7.86242 26.8826 6.41034C25.4305 4.95825 23.093 4.95825 18.418 4.95825Z" stroke="#1CA8CB" stroke-width="2" stroke-linecap="round" stroke-linejoin="round"/>
<path d="M11.3346 19.8333H17.0013M11.3346 14.1666H22.668M18.418 4.95825H15.5846C10.9096 4.95825 8.57214 4.95825 7.12005 6.41034C5.66797 7.86242 5.66797 10.1999 5.66797 14.8749V16.9999C5.66797 21.6749 5.66797 24.0124 7.12005 25.4645C8.57214 26.9166 10.9096 26.9166 15.5846 26.9166H18.418C23.093 26.9166 25.4305 26.9166 26.8826 25.4645C28.3346 24.0124 28.3346 21.6749 28.3346 16.9999V14.8749C28.3346 10.1999 28.3346 7.86242 26.8826 6.41034C25.4305 4.95825 23.093 4.95825 18.418 4.95825Z" stroke="#1CA8CB" stroke-width="2" stroke-linecap="round" stroke-linejoin="round"/>
</svg>
