<svg width="34" height="34" viewBox="0 0 34 34" fill="none" xmlns="http://www.w3.org/2000/svg">
<path d="M2.83203 14.1667H11.5162C11.8611 14.1633 12.1912 14.0261 12.437 13.7842L16.0779 10.2992C16.3222 10.0552 16.6534 9.91821 16.9987 9.91821C17.344 9.91821 17.6752 10.0552 17.9195 10.2992L21.5604 13.7842C21.8062 14.0261 22.1363 14.1633 22.4812 14.1667H31.1654" stroke="#1CA8CB" stroke-width="2" stroke-linecap="round" stroke-linejoin="round"/>
<path d="M4.2487 29.75V14.1667L7.02678 7.684C8.24795 4.8365 9.13761 4.25 12.2359 4.25H21.7615C24.8612 4.25 25.7494 4.8365 26.9706 7.684L29.7487 14.1667V29.75M2.83203 29.75H31.1654" stroke="#1CA8CB" stroke-width="2" stroke-linecap="round" stroke-linejoin="round"/>
<path d="M17.0128 15.5833H17" stroke="#1CA8CB" stroke-width="2" stroke-linecap="round" stroke-linejoin="round"/>
<path d="M13.4583 29.7499V23.3749C13.4583 22.8113 13.6822 22.2708 14.0807 21.8723C14.4792 21.4738 15.0197 21.2499 15.5833 21.2499H18.4167C18.9803 21.2499 19.5208 21.4738 19.9193 21.8723C20.3178 22.2708 20.5417 22.8113 20.5417 23.3749V29.7499M8.5 19.8333H9.91667M24.0833 19.8333H25.5" stroke="#1CA8CB" stroke-width="2" stroke-linecap="round" stroke-linejoin="round"/>
</svg>
