<svg width="34" height="34" viewBox="0 0 34 34" fill="none" xmlns="http://www.w3.org/2000/svg">
<path d="M22.6654 5.66675C23.6396 5.66647 24.5843 6.0009 25.3414 6.61405C26.0985 7.2272 26.6219 8.08184 26.8241 9.03486C27.0262 9.98787 26.8948 10.9814 26.4519 11.8491C26.0089 12.7168 25.2813 13.406 24.3909 13.8012M25.0935 18.4167C25.8909 18.4167 26.6805 18.5738 27.4171 18.8789C28.1538 19.1841 28.8231 19.6313 29.387 20.1951C29.9508 20.759 30.398 21.4283 30.7032 22.165C31.0083 22.9017 31.1654 23.6912 31.1654 24.4886C31.1654 25.8302 30.0788 26.9167 28.7372 26.9167M11.332 5.66675C10.3578 5.66647 9.41306 6.0009 8.65599 6.61405C7.89891 7.2272 7.37548 8.08184 7.17332 9.03486C6.97117 9.98787 7.10257 10.9814 7.54552 11.8491C7.98848 12.7168 8.71609 13.406 9.60653 13.8012M5.2602 26.9167C4.61621 26.9167 3.99859 26.6609 3.54322 26.2056C3.08786 25.7502 2.83203 25.1326 2.83203 24.4886C2.83203 23.6912 2.98908 22.9017 3.29422 22.165C3.59936 21.4283 4.04661 20.759 4.61043 20.1951C5.17425 19.6313 5.84361 19.1841 6.58027 18.8789C7.31694 18.5738 8.1065 18.4167 8.90386 18.4167M21.2487 11.3334C21.2487 12.4606 20.8009 13.5416 20.0039 14.3386C19.2069 15.1356 18.1259 15.5834 16.9987 15.5834C15.8715 15.5834 14.7905 15.1356 13.9935 14.3386C13.1965 13.5416 12.7487 12.4606 12.7487 11.3334C12.7487 10.2062 13.1965 9.12524 13.9935 8.32821C14.7905 7.53118 15.8715 7.08341 16.9987 7.08341C18.1259 7.08341 19.2069 7.53118 20.0039 8.32821C20.8009 9.12524 21.2487 10.2062 21.2487 11.3334ZM19.4269 19.8334H14.5705C13.7732 19.8334 12.9836 19.9905 12.2469 20.2956C11.5103 20.6007 10.8409 21.048 10.2771 21.6118C9.71327 22.1756 9.26603 22.845 8.96089 23.5817C8.65575 24.3183 8.4987 25.1079 8.4987 25.9052C8.4987 27.2468 9.58528 28.3334 10.9269 28.3334H23.0705C24.4121 28.3334 25.4987 27.2468 25.4987 25.9052C25.4987 25.1079 25.3416 24.3183 25.0365 23.5817C24.7314 22.845 24.2841 22.1756 23.7203 21.6118C23.1565 21.048 22.4871 20.6007 21.7505 20.2956C21.0138 19.9905 20.2242 19.8334 19.4269 19.8334Z" stroke="#1CA8CB" stroke-width="2" stroke-linecap="round" stroke-linejoin="round"/>
</svg>
