<svg width="28" height="28" viewBox="0 0 28 28" fill="none" xmlns="http://www.w3.org/2000/svg">
<path d="M23.9349 13.9997C23.9349 16.6297 22.8901 19.1521 21.0304 21.0118C19.1706 22.8716 16.6483 23.9163 14.0182 23.9163C11.3882 23.9163 8.86582 22.8716 7.00609 21.0118C5.14635 19.1521 4.10156 16.6297 4.10156 13.9997C4.10156 11.3696 5.14635 8.84727 7.00609 6.98753C8.86582 5.1278 11.3882 4.08301 14.0182 4.08301C16.6483 4.08301 19.1706 5.1278 21.0304 6.98753C22.8901 8.84727 23.9349 11.3696 23.9349 13.9997Z" stroke="#143F4A" stroke-width="1.5"/>
<path d="M26.25 14H23.9167M4.08333 14H1.75M14 1.75V4.08333M14 23.9167V26.25" stroke="#143F4A" stroke-width="1.5" stroke-linecap="round" stroke-linejoin="round"/>
<path d="M17.5 14C17.5 14.9283 17.1313 15.8185 16.4749 16.4749C15.8185 17.1313 14.9283 17.5 14 17.5C13.0717 17.5 12.1815 17.1313 11.5251 16.4749C10.8687 15.8185 10.5 14.9283 10.5 14C10.5 13.0717 10.8687 12.1815 11.5251 11.5251C12.1815 10.8687 13.0717 10.5 14 10.5C14.9283 10.5 15.8185 10.8687 16.4749 11.5251C17.1313 12.1815 17.5 13.0717 17.5 14Z" fill="#143F4A" stroke="#143F4A" stroke-width="1.5"/>
</svg>
