<svg width="24" height="24" viewBox="0 0 24 24" fill="none" xmlns="http://www.w3.org/2000/svg">
<path d="M16.3667 3.78035C17.2927 3.03235 18.3307 2.98635 19.4637 3.00235C20.0507 3.01135 20.3437 3.01535 20.5787 3.10635C20.9517 3.25135 21.2487 3.54835 21.3937 3.92135C21.4847 4.15635 21.4887 4.44935 21.4977 5.03635C21.5137 6.16935 21.4677 7.20635 20.7197 8.13335C20.0897 8.91335 19.0057 9.32135 18.4847 10.1833C18.0867 10.8393 18.2717 11.5203 18.4427 12.2213L19.7227 17.4663C19.9777 18.5123 19.7827 19.1813 19.0527 19.9123C18.6637 20.3023 18.3397 20.2823 18.0247 19.7793L14.1627 13.6253L12.3177 15.0913C11.6487 15.6233 11.3147 15.8893 11.1387 16.2633C10.7277 17.1393 10.9887 18.4553 11.0017 19.4053C11.0097 19.9303 10.5557 20.9653 9.91374 20.9993C9.51774 21.0213 9.38274 20.5473 9.25374 20.2563L8.02174 17.4543C7.72774 16.7843 7.71574 16.7723 7.04574 16.4783L4.24374 15.2453C3.95374 15.1173 3.47874 14.9823 3.50074 14.5863C3.53574 13.9443 4.57074 13.4903 5.09474 13.4983C6.04474 13.5113 7.36074 13.7723 8.23674 13.3613C8.61074 13.1853 8.87674 12.8513 9.40874 12.1813L10.8747 10.3373L4.72074 6.47535C4.21774 6.15935 4.19874 5.83635 4.58774 5.44735C5.31774 4.71735 5.98774 4.52235 7.03374 4.77735L12.2787 6.05735C12.9787 6.22835 13.6607 6.41335 14.3177 6.01535C15.1787 5.49535 15.5867 4.41135 16.3667 3.78035Z" stroke="#143F4A" stroke-width="1.5" stroke-linecap="round" stroke-linejoin="round"/>
</svg>
