<svg width="24" height="24" viewBox="0 0 24 24" fill="none" xmlns="http://www.w3.org/2000/svg">
<g clip-path="url(#clip0_1_150)">
<path d="M7.5 18.8569L5.5 23.8569M17.5 18.8569L19.5 23.8569" stroke="#143F4A" stroke-width="1.5" stroke-linecap="round" stroke-linejoin="round"/>
<path d="M4.5 10C4.5 6.229 4.5 4.343 5.672 3.172C6.844 2.001 8.729 2 12.5 2C16.271 2 18.157 2 19.328 3.172C20.499 4.344 20.5 6.229 20.5 10V13C20.5 15.828 20.5 17.243 19.621 18.121C18.743 19 17.328 19 14.5 19H10.5C7.672 19 6.257 19 5.379 18.121C4.5 17.243 4.5 15.828 4.5 13V10Z" stroke="#143F4A" stroke-width="1.5" stroke-linejoin="round"/>
<path d="M7.5 16H8.5M16.5 16H17.5M2.5 8V10M22.5 8V10" stroke="#143F4A" stroke-width="1.5" stroke-linecap="round" stroke-linejoin="round"/>
<path d="M5 5H20M5 13H20" stroke="#143F4A" stroke-width="1.5" stroke-linecap="round"/>
<path d="M12.5 13V5" stroke="#143F4A" stroke-width="1.5" stroke-linecap="round" stroke-linejoin="round"/>
</g>
<defs>
<clipPath id="clip0_1_150">
<rect width="24" height="24" fill="white"/>
</clipPath>
</defs>
</svg>
