<svg width="28" height="28" viewBox="0 0 28 28" fill="none" xmlns="http://www.w3.org/2000/svg">
<path d="M19.8307 9.91634C19.8307 8.36925 19.2161 6.88551 18.1222 5.79155C17.0282 4.69759 15.5445 4.08301 13.9974 4.08301C12.4503 4.08301 10.9666 4.69759 9.87261 5.79155C8.77864 6.88551 8.16406 8.36925 8.16406 9.91634C8.16406 11.4634 8.77864 12.9472 9.87261 14.0411C10.9666 15.1351 12.4503 15.7497 13.9974 15.7497C15.5445 15.7497 17.0282 15.1351 18.1222 14.0411C19.2161 12.9472 19.8307 11.4634 19.8307 9.91634Z" stroke="#143F4A" stroke-width="1.5" stroke-linecap="round" stroke-linejoin="round"/>
<path d="M22.1654 23.9162C22.1654 22.8437 21.9541 21.7818 21.5437 20.7909C21.1333 19.8001 20.5317 18.8998 19.7734 18.1415C19.0151 17.3831 18.1148 16.7816 17.1239 16.3712C16.1331 15.9607 15.0712 15.7495 13.9987 15.7495C12.9262 15.7495 11.8643 15.9607 10.8734 16.3712C9.88262 16.7816 8.98234 17.3831 8.22399 18.1415C7.46565 18.8998 6.8641 19.8001 6.45368 20.7909C6.04327 21.7818 5.83203 22.8437 5.83203 23.9162" stroke="#143F4A" stroke-width="1.5" stroke-linecap="round" stroke-linejoin="round"/>
</svg>
