<svg width="28" height="28" viewBox="0 0 28 28" fill="none" xmlns="http://www.w3.org/2000/svg">
<path d="M18.6667 2.3335V7.00016M9.33333 2.3335V7.00016M3.5 11.6668H24.5M15.1667 4.66683H12.8333C8.43383 4.66683 6.2335 4.66683 4.86733 6.03416C3.50117 7.4015 3.5 9.60066 3.5 14.0002V16.3335C3.5 20.733 3.5 22.9333 4.86733 24.2995C6.23467 25.6657 8.43383 25.6668 12.8333 25.6668H15.1667C19.5662 25.6668 21.7665 25.6668 23.1327 24.2995C24.4988 22.9322 24.5 20.733 24.5 16.3335V14.0002C24.5 9.60066 24.5 7.40033 23.1327 6.03416C21.7653 4.668 19.5662 4.66683 15.1667 4.66683Z" stroke="#143F4A" stroke-width="1.5" stroke-linecap="round" stroke-linejoin="round"/>
<path d="M13.994 16.3335H14.0034M13.994 21.0002H14.0034M18.6549 16.3335H18.6654M9.33203 16.3335H9.34253M9.33203 21.0002H9.34253" stroke="#143F4A" stroke-width="2" stroke-linecap="round" stroke-linejoin="round"/>
</svg>
