<svg width="24" height="24" viewBox="0 0 24 24" fill="none" xmlns="http://www.w3.org/2000/svg">
<path d="M6.50391 10V5M11.5039 10V5M16.5039 10V5.5M5.51591 17C4.09591 17 3.38591 17 2.94491 16.56C2.50391 16.121 2.50391 15.414 2.50391 14V8C2.50391 6.586 2.50391 5.879 2.94491 5.44C3.38591 5.001 4.09591 5 5.51591 5H12.6009C16.0739 5 17.8109 5 19.1409 5.706C20.1189 6.226 20.9349 7.006 21.4969 7.958C22.2609 9.251 22.3329 10.979 22.4769 14.436C22.5169 15.368 22.5369 15.834 22.3539 16.186C22.2199 16.446 22.0139 16.66 21.7589 16.804C21.4129 17 20.9449 17 20.0089 17H19.5039M9.50391 17H15.5039" stroke="#143F4A" stroke-width="1.5" stroke-linecap="round" stroke-linejoin="round"/>
<path d="M7.50391 19C8.03434 19 8.54305 18.7893 8.91812 18.4142C9.29319 18.0391 9.50391 17.5304 9.50391 17C9.50391 16.4696 9.29319 15.9609 8.91812 15.5858C8.54305 15.2107 8.03434 15 7.50391 15C6.97347 15 6.46477 15.2107 6.08969 15.5858C5.71462 15.9609 5.50391 16.4696 5.50391 17C5.50391 17.5304 5.71462 18.0391 6.08969 18.4142C6.46477 18.7893 6.97347 19 7.50391 19ZM17.5039 19C18.0343 19 18.543 18.7893 18.9181 18.4142C19.2932 18.0391 19.5039 17.5304 19.5039 17C19.5039 16.4696 19.2932 15.9609 18.9181 15.5858C18.543 15.2107 18.0343 15 17.5039 15C16.9735 15 16.4648 15.2107 16.0897 15.5858C15.7146 15.9609 15.5039 16.4696 15.5039 17C15.5039 17.5304 15.7146 18.0391 16.0897 18.4142C16.4648 18.7893 16.9735 19 17.5039 19Z" stroke="#143F4A" stroke-width="1.5"/>
<path d="M2.49609 10H15.8641C16.4911 10 16.7041 10.368 17.1841 10.944C17.7361 11.484 18.1091 11.863 18.6241 11.94C19.3441 12.048 22.0081 11.994 22.0081 11.994" stroke="#143F4A" stroke-width="1.5" stroke-linecap="round"/>
</svg>
