<svg width="34" height="34" viewBox="0 0 34 34" fill="none" xmlns="http://www.w3.org/2000/svg">
<path d="M24.0807 16.9998C24.0807 18.8785 23.3345 20.6801 22.0061 22.0085C20.6777 23.3369 18.876 24.0832 16.9974 24.0832C15.1188 24.0832 13.3171 23.3369 11.9887 22.0085C10.6603 20.6801 9.91406 18.8785 9.91406 16.9998C9.91406 15.1212 10.6603 13.3195 11.9887 11.9912C13.3171 10.6628 15.1188 9.9165 16.9974 9.9165C18.876 9.9165 20.6777 10.6628 22.0061 11.9912C23.3345 13.3195 24.0807 15.1212 24.0807 16.9998Z" stroke="#1CA8CB" stroke-width="2"/>
<path d="M16.9987 2.83325V4.95825M16.9987 29.0416V31.1666M27.0145 27.0172L25.5129 25.5155M8.48453 8.48434L6.98003 6.98409M31.1654 16.9999H29.0404M4.95703 16.9999H2.83203M27.0159 6.98267L25.5143 8.48434M8.48453 25.5155L6.98286 27.0172" stroke="#1CA8CB" stroke-width="2" stroke-linecap="round"/>
</svg>
