<svg width="34" height="34" viewBox="0 0 34 34" fill="none" xmlns="http://www.w3.org/2000/svg">
<path d="M26.9429 20.2624L25.2287 24.0832M26.9429 20.2624H22.6645M26.9429 20.2624C28.0266 17.8498 28.5678 16.6428 28.232 15.5449C28.2006 15.4409 28.1633 15.3387 28.1201 15.2389C27.6696 14.1892 26.5023 13.6834 24.1662 12.6705L20.1145 10.9167C18.5774 10.2508 17.8068 9.9165 16.9979 9.9165C16.1889 9.9165 15.4183 10.2494 13.8798 10.9167L9.82953 12.6705C7.49345 13.6834 6.32612 14.1892 5.87562 15.2389C5.83194 15.3391 5.7941 15.4418 5.76228 15.5463C5.42795 16.6428 5.96912 17.8498 7.05145 20.2638M8.76703 24.0832L7.05287 20.2624H11.3312" stroke="#1CA8CB" stroke-width="2" stroke-linecap="round" stroke-linejoin="round"/>
<path d="M25.5 12.7499V11.3333C25.5 8.66142 25.5 7.32692 24.6698 6.49675C23.8397 5.66659 22.5052 5.66659 19.8333 5.66659H14.1667C11.4948 5.66659 10.1603 5.66659 9.33017 6.49675C8.5 7.32692 8.5 8.66142 8.5 11.3333V12.7499M17 5.66659V2.83325" stroke="#1CA8CB" stroke-width="2" stroke-linecap="round" stroke-linejoin="round"/>
<path d="M2.83203 30.0233C3.80245 31.5122 5.05761 31.5122 6.05211 30.0233C9.24953 25.1329 12.2954 33.5408 14.5521 30.0799C17.9946 24.8893 20.4709 33.8893 23.0521 30.0233C26.4181 24.8737 28.5162 33.402 31.1654 30.5772" stroke="#1CA8CB" stroke-width="2" stroke-linecap="round"/>
</svg>
