<svg width="34" height="34" viewBox="0 0 34 34" fill="none" xmlns="http://www.w3.org/2000/svg">
<path d="M2.83203 24.0835H31.1654" stroke="#1CA8CB" stroke-width="2" stroke-linecap="round"/>
<path d="M17 9.91678C17 9.91678 19.125 8.45194 19.125 6.64569C19.125 3.45111 14.875 3.45111 14.875 6.64569C14.875 8.45194 17 9.91678 17 9.91678Z" stroke="#1CA8CB" stroke-width="2" stroke-linejoin="round"/>
<path d="M4.25 24.0834L5.12975 27.6038C5.28297 28.2168 5.63667 28.761 6.13463 29.1498C6.6326 29.5387 7.24626 29.75 7.87808 29.7501H26.1205C26.7523 29.75 27.366 29.5387 27.8639 29.1498C28.3619 28.761 28.7156 28.2168 28.8688 27.6038L29.75 24.0834M29.0417 20.5417C28.3362 14.5592 23.2135 9.91675 17 9.91675C10.7865 9.91675 5.66383 14.5592 4.95833 20.5417" stroke="#1CA8CB" stroke-width="2" stroke-linecap="round"/>
</svg>
