<svg width="34" height="34" viewBox="0 0 34 34" fill="none" xmlns="http://www.w3.org/2000/svg">
<path d="M2.83203 31.1213C4.17786 31.1213 5.50811 31.2445 6.62586 30.3733C7.72236 29.5176 9.46628 29.5459 10.5203 30.4356C11.6678 31.406 13.8353 31.3777 15.0111 30.4639C16.1501 29.5743 17.8784 29.4723 19.0203 30.4356C20.2726 31.4938 22.382 31.3423 23.6259 30.3733C24.7224 29.5176 26.4663 29.5459 27.5203 30.4356C28.5346 31.2927 29.9187 31.1213 31.1654 31.1213M11.332 26.9166C13.0292 23.5293 16.1997 21.2499 19.832 21.2499C23.4644 21.2499 26.6349 23.5293 28.332 26.9166M15.582 21.3944C11.332 20.6053 7.64445 23.144 5.66536 26.9166M16.9987 21.2499C16.9987 16.9999 18.132 10.1433 22.6654 7.08325M22.6654 7.08325C24.5099 4.38734 23.1966 2.83325 21.957 2.83325M22.6654 7.08325C23.7789 7.41475 27.21 8.95325 26.8913 12.7499M22.6654 7.08325C21.8366 6.08592 18.8588 4.81659 16.9987 6.79992M22.6654 7.08325C23.487 8.08909 24.082 11.3333 22.6654 12.7499" stroke="#1CA8CB" stroke-width="2" stroke-linecap="round" stroke-linejoin="round"/>
</svg>
