<svg width="34" height="34" viewBox="0 0 34 34" fill="none" xmlns="http://www.w3.org/2000/svg">
<path d="M4.25 5.6665V28.3332C4.25 29.6691 4.25 30.3363 4.66508 30.7514C5.08017 31.1665 5.74742 31.1665 7.08333 31.1665H26.9167C28.2526 31.1665 28.9198 31.1665 29.3349 30.7514C29.75 30.3363 29.75 29.6691 29.75 28.3332V5.6665M14.875 11.3332V13.4582M14.875 13.4582V15.5832M14.875 13.4582H19.125M19.125 11.3332V13.4582M19.125 13.4582V15.5832" stroke="#1CA8CB" stroke-width="2" stroke-linecap="round" stroke-linejoin="round"/>
<path d="M19.832 31.1666V25.4999C19.832 24.7485 19.5335 24.0278 19.0022 23.4965C18.4708 22.9651 17.7501 22.6666 16.9987 22.6666C16.2473 22.6666 15.5266 22.9651 14.9952 23.4965C14.4639 24.0278 14.1654 24.7485 14.1654 25.4999V31.1666M2.83203 5.66659H11.332C12.2387 4.00484 14.4345 2.83325 16.9987 2.83325C19.5629 2.83325 21.7587 4.00484 22.6654 5.66659H31.1654M8.4987 11.3333H9.91536M8.4987 16.9999H9.91536M8.4987 22.6666H9.91536M24.082 11.3333H25.4987M24.082 16.9999H25.4987M24.082 22.6666H25.4987" stroke="#1CA8CB" stroke-width="2" stroke-linecap="round" stroke-linejoin="round"/>
</svg>
