<svg width="34" height="34" viewBox="0 0 34 34" fill="none" xmlns="http://www.w3.org/2000/svg">
<path d="M19.4495 4.87881L21.9428 9.90656C22.2828 10.6064 23.1895 11.2779 23.9545 11.4054L28.4722 12.1633C31.3622 12.6492 32.0422 14.7629 29.9597 16.8482L26.4464 20.3899C25.8514 20.9891 25.5256 22.1466 25.7097 22.9753L26.7156 27.3599C27.5089 30.8307 25.6814 32.1723 22.6356 30.359L18.3997 27.8302C17.6347 27.3741 16.3739 27.3741 15.5947 27.8302L11.3617 30.359C8.33008 32.1723 6.48841 30.8151 7.28174 27.3599L8.28758 22.9753C8.47175 22.1466 8.14591 20.9891 7.55091 20.3899L4.03758 16.8482C1.97066 14.7615 2.63649 12.6492 5.52508 12.1633L10.0442 11.4054C10.7951 11.2779 11.7017 10.6064 12.0417 9.90656L14.5351 4.87881C15.8951 2.15173 18.1051 2.15173 19.4509 4.87881" fill="#FFA600"/>
</svg>
