<svg width="29" height="29" viewBox="0 0 29 29" fill="none" xmlns="http://www.w3.org/2000/svg">
<path d="M16.6136 2.04531L19.1069 7.07306C19.4469 7.7729 20.3536 8.4444 21.1186 8.5719L25.6363 9.32981C28.5263 9.81573 29.2063 11.9294 27.1238 14.0147L23.6105 17.5564C23.0155 18.1556 22.6896 19.3131 22.8738 20.1418L23.8796 24.5264C24.673 27.9972 22.8455 29.3388 19.7996 27.5255L15.5638 24.9967C14.7988 24.5406 13.538 24.5406 12.7588 24.9967L8.52581 27.5255C5.49414 29.3388 3.65247 27.9816 4.44581 24.5264L5.45164 20.1418C5.63581 19.3131 5.30997 18.1556 4.71497 17.5564L1.20164 14.0147C-0.865276 11.928 -0.199443 9.81573 2.68914 9.32981L7.20831 8.5719C7.95914 8.4444 8.86581 7.7729 9.20581 7.07306L11.6991 2.04531C13.0591 -0.681771 15.2691 -0.681771 16.615 2.04531" fill="#FFA600"/>
</svg>
