<svg width="34" height="34" viewBox="0 0 34 34" fill="none" xmlns="http://www.w3.org/2000/svg">
<path d="M24.0807 29.0415V31.1665M9.91406 29.0415V31.1665" stroke="#1CA8CB" stroke-width="2" stroke-linecap="round" stroke-linejoin="round"/>
<path d="M5.66406 9.60775C5.66406 8.70109 5.66406 8.24775 5.91056 7.69809C6.15706 7.14559 6.4064 6.92175 6.90648 6.47409C8.54556 5.005 11.8407 2.83325 16.9974 2.83325C22.1541 2.83325 25.4492 5.005 27.0883 6.47409C27.5884 6.92175 27.8391 7.14559 28.0842 7.69809C28.3307 8.24917 28.3307 8.7025 28.3307 9.60775V19.8333C28.3307 23.8396 28.3307 25.8442 27.0855 27.088C25.8416 28.3333 23.8371 28.3333 19.8307 28.3333H14.1641C10.1577 28.3333 8.15315 28.3333 6.90931 27.088C5.66406 25.8442 5.66406 23.8396 5.66406 19.8333V9.60775Z" stroke="#1CA8CB" stroke-width="2" stroke-linejoin="round"/>
<path d="M5.66406 19.8333C5.66406 19.8333 10.9525 21.2499 16.9974 21.2499C23.0423 21.2499 28.3307 19.8333 28.3307 19.8333M6.3724 24.7916H8.4974M25.4974 24.7916H27.6224M15.5807 24.7916H18.4141" stroke="#1CA8CB" stroke-width="2" stroke-linecap="round" stroke-linejoin="round"/>
<path d="M5.66406 8.5H28.3307" stroke="#1CA8CB" stroke-width="2" stroke-linejoin="round"/>
<path d="M2.83203 12.75V14.1667M31.1654 12.75V14.1667" stroke="#1CA8CB" stroke-width="2" stroke-linecap="round" stroke-linejoin="round"/>
</svg>
