<svg width="27" height="30" viewBox="0 0 27 30" fill="none" xmlns="http://www.w3.org/2000/svg">
<path d="M19.1667 0.75V6.41667M7.83333 0.75V6.41667M0.75 12.0833H26.25M14.9167 3.58333H12.0833C6.74108 3.58333 4.06925 3.58333 2.41033 5.24367C0.751417 6.904 0.75 9.57442 0.75 14.9167V17.75C0.75 23.0922 0.75 25.7641 2.41033 27.423C4.07067 29.0819 6.74108 29.0833 12.0833 29.0833H14.9167C20.2589 29.0833 22.9307 29.0833 24.5897 27.423C26.2486 25.7627 26.25 23.0922 26.25 17.75V14.9167C26.25 9.57442 26.25 6.90258 24.5897 5.24367C22.9293 3.58475 20.2589 3.58333 14.9167 3.58333Z" stroke="#111111" stroke-width="1.5" stroke-linecap="round" stroke-linejoin="round"/>
<path d="M13.493 17.75H13.5044M13.493 23.4167H13.5044M19.1526 17.75H19.1654M7.83203 17.75H7.84478M7.83203 23.4167H7.84478" stroke="#111111" stroke-width="2" stroke-linecap="round" stroke-linejoin="round"/>
</svg>
