<svg width="34" height="34" viewBox="0 0 34 34" fill="none" xmlns="http://www.w3.org/2000/svg">
<path d="M24.0807 12.0413C24.0807 10.1627 23.3345 8.36105 22.0061 7.03267C20.6777 5.70429 18.876 4.95801 16.9974 4.95801C15.1188 4.95801 13.3171 5.70429 11.9887 7.03267C10.6603 8.36105 9.91406 10.1627 9.91406 12.0413C9.91406 13.92 10.6603 15.7216 11.9887 17.05C13.3171 18.3784 15.1188 19.1247 16.9974 19.1247C18.876 19.1247 20.6777 18.3784 22.0061 17.05C23.3345 15.7216 24.0807 13.92 24.0807 12.0413Z" stroke="#111111" stroke-width="1.5" stroke-linecap="round" stroke-linejoin="round"/>
<path d="M26.9154 29.0412C26.9154 27.7389 26.6589 26.4494 26.1605 25.2462C25.6621 24.0431 24.9317 22.9499 24.0108 22.029C23.09 21.1082 21.9968 20.3777 20.7936 19.8794C19.5905 19.381 18.301 19.1245 16.9987 19.1245C15.6964 19.1245 14.4069 19.381 13.2038 19.8794C12.0006 20.3777 10.9074 21.1082 9.98656 22.029C9.06571 22.9499 8.33525 24.0431 7.83689 25.2462C7.33853 26.4494 7.08203 27.7389 7.08203 29.0412" stroke="#111111" stroke-width="1.5" stroke-linecap="round" stroke-linejoin="round"/>
</svg>
